<svg width="256" height="256" viewBox="0 0 256 256" fill="none" xmlns="http://www.w3.org/2000/svg">
<g clip-path="url(#clip0_1782_186)">
<g filter="url(#filter0_f_1782_186)">
<path fill-rule="evenodd" clip-rule="evenodd" d="M103.667 16C96.487 16 90.6667 21.8203 90.6667 29V77.6667C90.6667 84.8464 96.4869 90.6667 103.667 90.6667H152.333C159.513 90.6667 165.333 84.8464 165.333 77.6667V29C165.333 21.8203 159.513 16 152.333 16H103.667ZM178.333 90.6667C171.154 90.6667 165.333 96.4869 165.333 103.667V152.333C165.333 159.513 171.154 165.333 178.333 165.333H227C234.18 165.333 240 159.513 240 152.333V103.667C240 96.487 234.18 90.6667 227 90.6667H178.333ZM90.6667 178.333C90.6667 171.154 96.487 165.333 103.667 165.333H152.333C159.513 165.333 165.333 171.154 165.333 178.333V227C165.333 234.18 159.513 240 152.333 240H103.667C96.4869 240 90.6667 234.18 90.6667 227V178.333ZM29 90.6667C21.8203 90.6667 16 96.4869 16 103.667V152.333C16 159.513 21.8203 165.333 29 165.333H77.6667C84.8464 165.333 90.6667 159.513 90.6667 152.333V103.667C90.6667 96.487 84.8464 90.6667 77.6667 90.6667H29Z" fill="url(#paint0_linear_1782_186)" fill-opacity="0.3"/>
</g>
<path fill-rule="evenodd" clip-rule="evenodd" d="M103.667 16C96.487 16 90.6667 21.8203 90.6667 29V77.6667C90.6667 84.8464 96.4869 90.6667 103.667 90.6667H152.333C159.513 90.6667 165.333 84.8464 165.333 77.6667V29C165.333 21.8203 159.513 16 152.333 16H103.667ZM178.333 90.6667C171.154 90.6667 165.333 96.4869 165.333 103.667V152.333C165.333 159.513 171.154 165.333 178.333 165.333H227C234.18 165.333 240 159.513 240 152.333V103.667C240 96.487 234.18 90.6667 227 90.6667H178.333ZM90.6667 178.333C90.6667 171.154 96.487 165.333 103.667 165.333H152.333C159.513 165.333 165.333 171.154 165.333 178.333V227C165.333 234.18 159.513 240 152.333 240H103.667C96.4869 240 90.6667 234.18 90.6667 227V178.333ZM29 90.6667C21.8203 90.6667 16 96.4869 16 103.667V152.333C16 159.513 21.8203 165.333 29 165.333H77.6667C84.8464 165.333 90.6667 159.513 90.6667 152.333V103.667C90.6667 96.487 84.8464 90.6667 77.6667 90.6667H29Z" fill="url(#paint1_linear_1782_186)"/>
</g>
<defs>
<filter id="filter0_f_1782_186" x="-55" y="-55" width="366" height="366" filterUnits="userSpaceOnUse" color-interpolation-filters="sRGB">
<feFlood flood-opacity="0" result="BackgroundImageFix"/>
<feBlend mode="normal" in="SourceGraphic" in2="BackgroundImageFix" result="shape"/>
<feGaussianBlur stdDeviation="35.5" result="effect1_foregroundBlur_1782_186"/>
</filter>
<linearGradient id="paint0_linear_1782_186" x1="11.4472" y1="244.098" x2="244.098" y2="12.3577" gradientUnits="userSpaceOnUse">
<stop stop-color="#FF291C"/>
<stop offset="1" stop-color="#FFF50D"/>
</linearGradient>
<linearGradient id="paint1_linear_1782_186" x1="11.4472" y1="244.098" x2="244.098" y2="12.3577" gradientUnits="userSpaceOnUse">
<stop stop-color="#FF291C"/>
<stop offset="1" stop-color="#FFF50D"/>
</linearGradient>
<clipPath id="clip0_1782_186">
<rect width="256" height="256" fill="white"/>
</clipPath>
</defs>
</svg>
